<?xml version="1.0" encoding="utf-8" standalone="no"?>
<!DOCTYPE svg PUBLIC "-//W3C//DTD SVG 1.1//EN"
  "http://www.w3.org/Graphics/SVG/1.1/DTD/svg11.dtd">
<svg xmlns:xlink="http://www.w3.org/1999/xlink" width="477.312505pt" height="345.42825pt" viewBox="0 0 477.312505 345.42825" xmlns="http://www.w3.org/2000/svg" version="1.1">
 <metadata>
<text>
<!--
*********** START - info inserted by figure finder ********
***********************************************************
***********************************************************
CONTEXT : hello here is some context
DATE : 2024-12-06_09-11-27
FIGURE NAME: figure_v2
FIGURE CWD: /data1/projects/dumoulinlab/Lab_members/Marcus/programs/figure_finder
NOTEBOOK: /data1/projects/dumoulinlab/Lab_members/Marcus/programs/figure_finder/example.ipynb
TAGS: else,1.0,bleep,0.6,bloop,0.4,0.8,2024-12-06T09:11:27.923018,interesting,text,2024-12-06_09-11-27,figure_v2,0.2,sub01,Comparing,0.0,Something
***********************************************************
********* CODE FROM NB CELL USED TO MAKE FIG **************

***********************************************************
***********************************************************
************* END - info inserted by figure finder ********
-->
</text>
  <rdf:RDF xmlns:dc="http://purl.org/dc/elements/1.1/" xmlns:cc="http://creativecommons.org/ns#" xmlns:rdf="http://www.w3.org/1999/02/22-rdf-syntax-ns#">
   <cc:Work>
    <dc:type rdf:resource="http://purl.org/dc/dcmitype/StillImage"/>
    <dc:date>2024-12-06T09:11:27.923018</dc:date>
    <dc:format>image/svg+xml</dc:format>
    <dc:creator>
     <cc:Agent>
      <dc:title>Matplotlib v3.5.1, https://matplotlib.org/</dc:title>
     </cc:Agent>
    </dc:creator>
   </cc:Work>
  </rdf:RDF>
 </metadata>
 <defs>
  <style type="text/css">*{stroke-linejoin: round; stroke-linecap: butt}</style>
 </defs>
 <g id="figure_1">
  <g id="patch_1">
   <path d="M 0 345.42825 
L 477.312505 345.42825 
L 477.312505 -0 
L 0 -0 
L 0 345.42825 
z
" style="fill: none"/>
  </g>
  <g id="axes_1">
   <g id="patch_2">
    <path d="M 43.78125 307.872 
L 400.90125 307.872 
L 400.90125 41.76 
L 43.78125 41.76 
L 43.78125 307.872 
z
" style="fill: none"/>
   </g>
   <g id="PathCollection_1">
    <defs>
     <path id="m8c161272c6" d="M 0 3 
C 0.795609 3 1.55874 2.683901 2.12132 2.12132 
C 2.683901 1.55874 3 0.795609 3 0 
C 3 -0.795609 2.683901 -1.55874 2.12132 -2.12132 
C 1.55874 -2.683901 0.795609 -3 0 -3 
C -0.795609 -3 -1.55874 -2.683901 -2.12132 -2.12132 
C -2.683901 -1.55874 -3 -0.795609 -3 0 
C -3 0.795609 -2.683901 1.55874 -2.12132 2.12132 
C -1.55874 2.683901 -0.795609 3 0 3 
z
" style="stroke: #1f77b4"/>
    </defs>
    <g clip-path="url(#p61efbe85bd)">
     <use xlink:href="#m8c161272c6" x="340.833745" y="217.203532" style="fill: #1f77b4; stroke: #1f77b4"/>
     <use xlink:href="#m8c161272c6" x="108.85487" y="285.944952" style="fill: #1f77b4; stroke: #1f77b4"/>
     <use xlink:href="#m8c161272c6" x="212.954919" y="281.832297" style="fill: #1f77b4; stroke: #1f77b4"/>
     <use xlink:href="#m8c161272c6" x="203.862812" y="191.997929" style="fill: #1f77b4; stroke: #1f77b4"/>
     <use xlink:href="#m8c161272c6" x="353.244191" y="61.621938" style="fill: #1f77b4; stroke: #1f77b4"/>
     <use xlink:href="#m8c161272c6" x="114.795601" y="85.122854" style="fill: #1f77b4; stroke: #1f77b4"/>
     <use xlink:href="#m8c161272c6" x="60.013977" y="219.194898" style="fill: #1f77b4; stroke: #1f77b4"/>
     <use xlink:href="#m8c161272c6" x="176.908868" y="267.890214" style="fill: #1f77b4; stroke: #1f77b4"/>
     <use xlink:href="#m8c161272c6" x="214.140737" y="130.638891" style="fill: #1f77b4; stroke: #1f77b4"/>
     <use xlink:href="#m8c161272c6" x="65.289157" y="173.503122" style="fill: #1f77b4; stroke: #1f77b4"/>
     <use xlink:href="#m8c161272c6" x="128.338139" y="185.002063" style="fill: #1f77b4; stroke: #1f77b4"/>
     <use xlink:href="#m8c161272c6" x="306.352204" y="232.763633" style="fill: #1f77b4; stroke: #1f77b4"/>
     <use xlink:href="#m8c161272c6" x="303.532019" y="228.437828" style="fill: #1f77b4; stroke: #1f77b4"/>
     <use xlink:href="#m8c161272c6" x="86.156314" y="110.6604" style="fill: #1f77b4; stroke: #1f77b4"/>
     <use xlink:href="#m8c161272c6" x="157.313316" y="192.761178" style="fill: #1f77b4; stroke: #1f77b4"/>
     <use xlink:href="#m8c161272c6" x="71.368349" y="278.038736" style="fill: #1f77b4; stroke: #1f77b4"/>
     <use xlink:href="#m8c161272c6" x="364.611825" y="107.11951" style="fill: #1f77b4; stroke: #1f77b4"/>
     <use xlink:href="#m8c161272c6" x="342.56665" y="54.3532" style="fill: #1f77b4; stroke: #1f77b4"/>
     <use xlink:href="#m8c161272c6" x="107.377601" y="214.659934" style="fill: #1f77b4; stroke: #1f77b4"/>
     <use xlink:href="#m8c161272c6" x="110.960272" y="203.491834" style="fill: #1f77b4; stroke: #1f77b4"/>
     <use xlink:href="#m8c161272c6" x="289.24911" y="201.7877" style="fill: #1f77b4; stroke: #1f77b4"/>
     <use xlink:href="#m8c161272c6" x="363.782592" y="159.906667" style="fill: #1f77b4; stroke: #1f77b4"/>
     <use xlink:href="#m8c161272c6" x="114.796727" y="67.909738" style="fill: #1f77b4; stroke: #1f77b4"/>
     <use xlink:href="#m8c161272c6" x="324.626731" y="54.752109" style="fill: #1f77b4; stroke: #1f77b4"/>
     <use xlink:href="#m8c161272c6" x="341.595433" y="245.280965" style="fill: #1f77b4; stroke: #1f77b4"/>
     <use xlink:href="#m8c161272c6" x="207.483704" y="94.859297" style="fill: #1f77b4; stroke: #1f77b4"/>
     <use xlink:href="#m8c161272c6" x="382.562005" y="113.522808" style="fill: #1f77b4; stroke: #1f77b4"/>
     <use xlink:href="#m8c161272c6" x="325.428955" y="187.278763" style="fill: #1f77b4; stroke: #1f77b4"/>
     <use xlink:href="#m8c161272c6" x="221.810392" y="294.371123" style="fill: #1f77b4; stroke: #1f77b4"/>
     <use xlink:href="#m8c161272c6" x="103.507478" y="88.750194" style="fill: #1f77b4; stroke: #1f77b4"/>
     <use xlink:href="#m8c161272c6" x="306.433494" y="160.738377" style="fill: #1f77b4; stroke: #1f77b4"/>
     <use xlink:href="#m8c161272c6" x="377.89367" y="235.564512" style="fill: #1f77b4; stroke: #1f77b4"/>
     <use xlink:href="#m8c161272c6" x="292.120257" y="212.714691" style="fill: #1f77b4; stroke: #1f77b4"/>
     <use xlink:href="#m8c161272c6" x="270.47939" y="133.718283" style="fill: #1f77b4; stroke: #1f77b4"/>
     <use xlink:href="#m8c161272c6" x="85.7241" y="122.68867" style="fill: #1f77b4; stroke: #1f77b4"/>
     <use xlink:href="#m8c161272c6" x="358.838053" y="280.610964" style="fill: #1f77b4; stroke: #1f77b4"/>
     <use xlink:href="#m8c161272c6" x="105.492214" y="272.762839" style="fill: #1f77b4; stroke: #1f77b4"/>
     <use xlink:href="#m8c161272c6" x="281.517563" y="268.893887" style="fill: #1f77b4; stroke: #1f77b4"/>
     <use xlink:href="#m8c161272c6" x="374.245067" y="146.198655" style="fill: #1f77b4; stroke: #1f77b4"/>
     <use xlink:href="#m8c161272c6" x="145.061594" y="229.560018" style="fill: #1f77b4; stroke: #1f77b4"/>
     <use xlink:href="#m8c161272c6" x="352.453479" y="280.420408" style="fill: #1f77b4; stroke: #1f77b4"/>
     <use xlink:href="#m8c161272c6" x="312.531449" y="191.405855" style="fill: #1f77b4; stroke: #1f77b4"/>
     <use xlink:href="#m8c161272c6" x="237.344526" y="229.248662" style="fill: #1f77b4; stroke: #1f77b4"/>
     <use xlink:href="#m8c161272c6" x="370.107859" y="123.787185" style="fill: #1f77b4; stroke: #1f77b4"/>
     <use xlink:href="#m8c161272c6" x="156.622582" y="106.857864" style="fill: #1f77b4; stroke: #1f77b4"/>
     <use xlink:href="#m8c161272c6" x="260.010861" y="124.426828" style="fill: #1f77b4; stroke: #1f77b4"/>
     <use xlink:href="#m8c161272c6" x="357.424871" y="265.458063" style="fill: #1f77b4; stroke: #1f77b4"/>
     <use xlink:href="#m8c161272c6" x="153.117731" y="290.953283" style="fill: #1f77b4; stroke: #1f77b4"/>
     <use xlink:href="#m8c161272c6" x="149.166896" y="53.856" style="fill: #1f77b4; stroke: #1f77b4"/>
     <use xlink:href="#m8c161272c6" x="169.822194" y="68.001477" style="fill: #1f77b4; stroke: #1f77b4"/>
     <use xlink:href="#m8c161272c6" x="101.265937" y="97.749808" style="fill: #1f77b4; stroke: #1f77b4"/>
     <use xlink:href="#m8c161272c6" x="103.153836" y="167.669677" style="fill: #1f77b4; stroke: #1f77b4"/>
     <use xlink:href="#m8c161272c6" x="81.874934" y="79.597645" style="fill: #1f77b4; stroke: #1f77b4"/>
     <use xlink:href="#m8c161272c6" x="116.17812" y="76.547034" style="fill: #1f77b4; stroke: #1f77b4"/>
     <use xlink:href="#m8c161272c6" x="225.895272" y="244.907772" style="fill: #1f77b4; stroke: #1f77b4"/>
     <use xlink:href="#m8c161272c6" x="102.856256" y="234.17326" style="fill: #1f77b4; stroke: #1f77b4"/>
     <use xlink:href="#m8c161272c6" x="304.581525" y="138.634459" style="fill: #1f77b4; stroke: #1f77b4"/>
     <use xlink:href="#m8c161272c6" x="216.569064" y="131.419717" style="fill: #1f77b4; stroke: #1f77b4"/>
     <use xlink:href="#m8c161272c6" x="81.102104" y="253.095058" style="fill: #1f77b4; stroke: #1f77b4"/>
     <use xlink:href="#m8c161272c6" x="91.528156" y="98.636226" style="fill: #1f77b4; stroke: #1f77b4"/>
     <use xlink:href="#m8c161272c6" x="113.866395" y="205.45461" style="fill: #1f77b4; stroke: #1f77b4"/>
     <use xlink:href="#m8c161272c6" x="313.159327" y="103.286519" style="fill: #1f77b4; stroke: #1f77b4"/>
     <use xlink:href="#m8c161272c6" x="304.933096" y="65.420713" style="fill: #1f77b4; stroke: #1f77b4"/>
     <use xlink:href="#m8c161272c6" x="341.34575" y="176.414958" style="fill: #1f77b4; stroke: #1f77b4"/>
     <use xlink:href="#m8c161272c6" x="238.895881" y="78.554226" style="fill: #1f77b4; stroke: #1f77b4"/>
     <use xlink:href="#m8c161272c6" x="86.815161" y="145.263884" style="fill: #1f77b4; stroke: #1f77b4"/>
     <use xlink:href="#m8c161272c6" x="97.305046" y="74.121104" style="fill: #1f77b4; stroke: #1f77b4"/>
     <use xlink:href="#m8c161272c6" x="231.33112" y="201.097736" style="fill: #1f77b4; stroke: #1f77b4"/>
     <use xlink:href="#m8c161272c6" x="128.45218" y="125.790112" style="fill: #1f77b4; stroke: #1f77b4"/>
     <use xlink:href="#m8c161272c6" x="102.740666" y="295.776" style="fill: #1f77b4; stroke: #1f77b4"/>
     <use xlink:href="#m8c161272c6" x="101.717084" y="106.683176" style="fill: #1f77b4; stroke: #1f77b4"/>
     <use xlink:href="#m8c161272c6" x="340.716917" y="201.765011" style="fill: #1f77b4; stroke: #1f77b4"/>
     <use xlink:href="#m8c161272c6" x="60.208054" y="127.891843" style="fill: #1f77b4; stroke: #1f77b4"/>
     <use xlink:href="#m8c161272c6" x="318.868352" y="241.938735" style="fill: #1f77b4; stroke: #1f77b4"/>
     <use xlink:href="#m8c161272c6" x="384.668523" y="94.525969" style="fill: #1f77b4; stroke: #1f77b4"/>
     <use xlink:href="#m8c161272c6" x="117.350221" y="147.467557" style="fill: #1f77b4; stroke: #1f77b4"/>
     <use xlink:href="#m8c161272c6" x="271.418612" y="104.286336" style="fill: #1f77b4; stroke: #1f77b4"/>
     <use xlink:href="#m8c161272c6" x="340.775015" y="238.10669" style="fill: #1f77b4; stroke: #1f77b4"/>
     <use xlink:href="#m8c161272c6" x="234.3785" y="117.313968" style="fill: #1f77b4; stroke: #1f77b4"/>
     <use xlink:href="#m8c161272c6" x="199.622067" y="125.087066" style="fill: #1f77b4; stroke: #1f77b4"/>
     <use xlink:href="#m8c161272c6" x="264.494209" y="178.59944" style="fill: #1f77b4; stroke: #1f77b4"/>
     <use xlink:href="#m8c161272c6" x="94.070827" y="217.630276" style="fill: #1f77b4; stroke: #1f77b4"/>
     <use xlink:href="#m8c161272c6" x="176.661241" y="207.436508" style="fill: #1f77b4; stroke: #1f77b4"/>
     <use xlink:href="#m8c161272c6" x="328.489141" y="269.253578" style="fill: #1f77b4; stroke: #1f77b4"/>
     <use xlink:href="#m8c161272c6" x="166.732775" y="83.429622" style="fill: #1f77b4; stroke: #1f77b4"/>
     <use xlink:href="#m8c161272c6" x="186.57474" y="56.162178" style="fill: #1f77b4; stroke: #1f77b4"/>
     <use xlink:href="#m8c161272c6" x="266.469814" y="277.284817" style="fill: #1f77b4; stroke: #1f77b4"/>
     <use xlink:href="#m8c161272c6" x="322.948746" y="142.373429" style="fill: #1f77b4; stroke: #1f77b4"/>
     <use xlink:href="#m8c161272c6" x="338.260901" y="93.580263" style="fill: #1f77b4; stroke: #1f77b4"/>
     <use xlink:href="#m8c161272c6" x="112.18794" y="107.934773" style="fill: #1f77b4; stroke: #1f77b4"/>
     <use xlink:href="#m8c161272c6" x="356.553266" y="148.847092" style="fill: #1f77b4; stroke: #1f77b4"/>
     <use xlink:href="#m8c161272c6" x="199.141712" y="231.137907" style="fill: #1f77b4; stroke: #1f77b4"/>
     <use xlink:href="#m8c161272c6" x="288.551659" y="214.405153" style="fill: #1f77b4; stroke: #1f77b4"/>
     <use xlink:href="#m8c161272c6" x="202.544421" y="159.148917" style="fill: #1f77b4; stroke: #1f77b4"/>
     <use xlink:href="#m8c161272c6" x="198.487678" y="292.673372" style="fill: #1f77b4; stroke: #1f77b4"/>
     <use xlink:href="#m8c161272c6" x="61.803938" y="295.61034" style="fill: #1f77b4; stroke: #1f77b4"/>
     <use xlink:href="#m8c161272c6" x="229.071349" y="198.023876" style="fill: #1f77b4; stroke: #1f77b4"/>
     <use xlink:href="#m8c161272c6" x="221.007136" y="140.637735" style="fill: #1f77b4; stroke: #1f77b4"/>
     <use xlink:href="#m8c161272c6" x="159.746209" y="250.285495" style="fill: #1f77b4; stroke: #1f77b4"/>
     <use xlink:href="#m8c161272c6" x="98.936828" y="143.528545" style="fill: #1f77b4; stroke: #1f77b4"/>
    </g>
   </g>
   <g id="matplotlib.axis_1">
    <g id="xtick_1">
     <g id="line2d_1">
      <defs>
       <path id="m0ce5e4b126" d="M 0 0 
L 0 3.5 
" style="stroke: #000000; stroke-width: 0.8"/>
      </defs>
      <g>
       <use xlink:href="#m0ce5e4b126" x="55.349361" y="307.872" style="stroke: #000000; stroke-width: 0.8"/>
      </g>
     </g>
     <g id="text_1">
      <!-- 0.0 -->
      <g transform="translate(47.397798 322.470438)scale(0.1 -0.1)">
       <defs>
        <path id="DejaVuSans-30" d="M 2034 4250 
Q 1547 4250 1301 3770 
Q 1056 3291 1056 2328 
Q 1056 1369 1301 889 
Q 1547 409 2034 409 
Q 2525 409 2770 889 
Q 3016 1369 3016 2328 
Q 3016 3291 2770 3770 
Q 2525 4250 2034 4250 
z
M 2034 4750 
Q 2819 4750 3233 4129 
Q 3647 3509 3647 2328 
Q 3647 1150 3233 529 
Q 2819 -91 2034 -91 
Q 1250 -91 836 529 
Q 422 1150 422 2328 
Q 422 3509 836 4129 
Q 1250 4750 2034 4750 
z
" transform="scale(0.015625)"/>
        <path id="DejaVuSans-2e" d="M 684 794 
L 1344 794 
L 1344 0 
L 684 0 
L 684 794 
z
" transform="scale(0.015625)"/>
       </defs>
       <use xlink:href="#DejaVuSans-30"/>
       <use xlink:href="#DejaVuSans-2e" x="63.623047"/>
       <use xlink:href="#DejaVuSans-30" x="95.410156"/>
      </g>
     </g>
    </g>
    <g id="xtick_2">
     <g id="line2d_2">
      <g>
       <use xlink:href="#m0ce5e4b126" x="122.95449" y="307.872" style="stroke: #000000; stroke-width: 0.8"/>
      </g>
     </g>
     <g id="text_2">
      <!-- 0.2 -->
      <g transform="translate(115.002927 322.470438)scale(0.1 -0.1)">
       <defs>
        <path id="DejaVuSans-32" d="M 1228 531 
L 3431 531 
L 3431 0 
L 469 0 
L 469 531 
Q 828 903 1448 1529 
Q 2069 2156 2228 2338 
Q 2531 2678 2651 2914 
Q 2772 3150 2772 3378 
Q 2772 3750 2511 3984 
Q 2250 4219 1831 4219 
Q 1534 4219 1204 4116 
Q 875 4013 500 3803 
L 500 4441 
Q 881 4594 1212 4672 
Q 1544 4750 1819 4750 
Q 2544 4750 2975 4387 
Q 3406 4025 3406 3419 
Q 3406 3131 3298 2873 
Q 3191 2616 2906 2266 
Q 2828 2175 2409 1742 
Q 1991 1309 1228 531 
z
" transform="scale(0.015625)"/>
       </defs>
       <use xlink:href="#DejaVuSans-30"/>
       <use xlink:href="#DejaVuSans-2e" x="63.623047"/>
       <use xlink:href="#DejaVuSans-32" x="95.410156"/>
      </g>
     </g>
    </g>
    <g id="xtick_3">
     <g id="line2d_3">
      <g>
       <use xlink:href="#m0ce5e4b126" x="190.559618" y="307.872" style="stroke: #000000; stroke-width: 0.8"/>
      </g>
     </g>
     <g id="text_3">
      <!-- 0.4 -->
      <g transform="translate(182.608056 322.470438)scale(0.1 -0.1)">
       <defs>
        <path id="DejaVuSans-34" d="M 2419 4116 
L 825 1625 
L 2419 1625 
L 2419 4116 
z
M 2253 4666 
L 3047 4666 
L 3047 1625 
L 3713 1625 
L 3713 1100 
L 3047 1100 
L 3047 0 
L 2419 0 
L 2419 1100 
L 313 1100 
L 313 1709 
L 2253 4666 
z
" transform="scale(0.015625)"/>
       </defs>
       <use xlink:href="#DejaVuSans-30"/>
       <use xlink:href="#DejaVuSans-2e" x="63.623047"/>
       <use xlink:href="#DejaVuSans-34" x="95.410156"/>
      </g>
     </g>
    </g>
    <g id="xtick_4">
     <g id="line2d_4">
      <g>
       <use xlink:href="#m0ce5e4b126" x="258.164747" y="307.872" style="stroke: #000000; stroke-width: 0.8"/>
      </g>
     </g>
     <g id="text_4">
      <!-- 0.6 -->
      <g transform="translate(250.213185 322.470438)scale(0.1 -0.1)">
       <defs>
        <path id="DejaVuSans-36" d="M 2113 2584 
Q 1688 2584 1439 2293 
Q 1191 2003 1191 1497 
Q 1191 994 1439 701 
Q 1688 409 2113 409 
Q 2538 409 2786 701 
Q 3034 994 3034 1497 
Q 3034 2003 2786 2293 
Q 2538 2584 2113 2584 
z
M 3366 4563 
L 3366 3988 
Q 3128 4100 2886 4159 
Q 2644 4219 2406 4219 
Q 1781 4219 1451 3797 
Q 1122 3375 1075 2522 
Q 1259 2794 1537 2939 
Q 1816 3084 2150 3084 
Q 2853 3084 3261 2657 
Q 3669 2231 3669 1497 
Q 3669 778 3244 343 
Q 2819 -91 2113 -91 
Q 1303 -91 875 529 
Q 447 1150 447 2328 
Q 447 3434 972 4092 
Q 1497 4750 2381 4750 
Q 2619 4750 2861 4703 
Q 3103 4656 3366 4563 
z
" transform="scale(0.015625)"/>
       </defs>
       <use xlink:href="#DejaVuSans-30"/>
       <use xlink:href="#DejaVuSans-2e" x="63.623047"/>
       <use xlink:href="#DejaVuSans-36" x="95.410156"/>
      </g>
     </g>
    </g>
    <g id="xtick_5">
     <g id="line2d_5">
      <g>
       <use xlink:href="#m0ce5e4b126" x="325.769876" y="307.872" style="stroke: #000000; stroke-width: 0.8"/>
      </g>
     </g>
     <g id="text_5">
      <!-- 0.8 -->
      <g transform="translate(317.818313 322.470438)scale(0.1 -0.1)">
       <defs>
        <path id="DejaVuSans-38" d="M 2034 2216 
Q 1584 2216 1326 1975 
Q 1069 1734 1069 1313 
Q 1069 891 1326 650 
Q 1584 409 2034 409 
Q 2484 409 2743 651 
Q 3003 894 3003 1313 
Q 3003 1734 2745 1975 
Q 2488 2216 2034 2216 
z
M 1403 2484 
Q 997 2584 770 2862 
Q 544 3141 544 3541 
Q 544 4100 942 4425 
Q 1341 4750 2034 4750 
Q 2731 4750 3128 4425 
Q 3525 4100 3525 3541 
Q 3525 3141 3298 2862 
Q 3072 2584 2669 2484 
Q 3125 2378 3379 2068 
Q 3634 1759 3634 1313 
Q 3634 634 3220 271 
Q 2806 -91 2034 -91 
Q 1263 -91 848 271 
Q 434 634 434 1313 
Q 434 1759 690 2068 
Q 947 2378 1403 2484 
z
M 1172 3481 
Q 1172 3119 1398 2916 
Q 1625 2713 2034 2713 
Q 2441 2713 2670 2916 
Q 2900 3119 2900 3481 
Q 2900 3844 2670 4047 
Q 2441 4250 2034 4250 
Q 1625 4250 1398 4047 
Q 1172 3844 1172 3481 
z
" transform="scale(0.015625)"/>
       </defs>
       <use xlink:href="#DejaVuSans-30"/>
       <use xlink:href="#DejaVuSans-2e" x="63.623047"/>
       <use xlink:href="#DejaVuSans-38" x="95.410156"/>
      </g>
     </g>
    </g>
    <g id="xtick_6">
     <g id="line2d_6">
      <g>
       <use xlink:href="#m0ce5e4b126" x="393.375005" y="307.872" style="stroke: #000000; stroke-width: 0.8"/>
      </g>
     </g>
     <g id="text_6">
      <!-- 1.0 -->
      <g transform="translate(385.423442 322.470438)scale(0.1 -0.1)">
       <defs>
        <path id="DejaVuSans-31" d="M 794 531 
L 1825 531 
L 1825 4091 
L 703 3866 
L 703 4441 
L 1819 4666 
L 2450 4666 
L 2450 531 
L 3481 531 
L 3481 0 
L 794 0 
L 794 531 
z
" transform="scale(0.015625)"/>
       </defs>
       <use xlink:href="#DejaVuSans-31"/>
       <use xlink:href="#DejaVuSans-2e" x="63.623047"/>
       <use xlink:href="#DejaVuSans-30" x="95.410156"/>
      </g>
     </g>
    </g>
    <g id="text_7">
     <!-- bloop -->
     <g transform="translate(208.485 336.148562)scale(0.1 -0.1)">
      <defs>
       <path id="DejaVuSans-62" d="M 3116 1747 
Q 3116 2381 2855 2742 
Q 2594 3103 2138 3103 
Q 1681 3103 1420 2742 
Q 1159 2381 1159 1747 
Q 1159 1113 1420 752 
Q 1681 391 2138 391 
Q 2594 391 2855 752 
Q 3116 1113 3116 1747 
z
M 1159 2969 
Q 1341 3281 1617 3432 
Q 1894 3584 2278 3584 
Q 2916 3584 3314 3078 
Q 3713 2572 3713 1747 
Q 3713 922 3314 415 
Q 2916 -91 2278 -91 
Q 1894 -91 1617 61 
Q 1341 213 1159 525 
L 1159 0 
L 581 0 
L 581 4863 
L 1159 4863 
L 1159 2969 
z
" transform="scale(0.015625)"/>
       <path id="DejaVuSans-6c" d="M 603 4863 
L 1178 4863 
L 1178 0 
L 603 0 
L 603 4863 
z
" transform="scale(0.015625)"/>
       <path id="DejaVuSans-6f" d="M 1959 3097 
Q 1497 3097 1228 2736 
Q 959 2375 959 1747 
Q 959 1119 1226 758 
Q 1494 397 1959 397 
Q 2419 397 2687 759 
Q 2956 1122 2956 1747 
Q 2956 2369 2687 2733 
Q 2419 3097 1959 3097 
z
M 1959 3584 
Q 2709 3584 3137 3096 
Q 3566 2609 3566 1747 
Q 3566 888 3137 398 
Q 2709 -91 1959 -91 
Q 1206 -91 779 398 
Q 353 888 353 1747 
Q 353 2609 779 3096 
Q 1206 3584 1959 3584 
z
" transform="scale(0.015625)"/>
       <path id="DejaVuSans-70" d="M 1159 525 
L 1159 -1331 
L 581 -1331 
L 581 3500 
L 1159 3500 
L 1159 2969 
Q 1341 3281 1617 3432 
Q 1894 3584 2278 3584 
Q 2916 3584 3314 3078 
Q 3713 2572 3713 1747 
Q 3713 922 3314 415 
Q 2916 -91 2278 -91 
Q 1894 -91 1617 61 
Q 1341 213 1159 525 
z
M 3116 1747 
Q 3116 2381 2855 2742 
Q 2594 3103 2138 3103 
Q 1681 3103 1420 2742 
Q 1159 2381 1159 1747 
Q 1159 1113 1420 752 
Q 1681 391 2138 391 
Q 2594 391 2855 752 
Q 3116 1113 3116 1747 
z
" transform="scale(0.015625)"/>
      </defs>
      <use xlink:href="#DejaVuSans-62"/>
      <use xlink:href="#DejaVuSans-6c" x="63.476562"/>
      <use xlink:href="#DejaVuSans-6f" x="91.259766"/>
      <use xlink:href="#DejaVuSans-6f" x="152.441406"/>
      <use xlink:href="#DejaVuSans-70" x="213.623047"/>
     </g>
    </g>
   </g>
   <g id="matplotlib.axis_2">
    <g id="ytick_1">
     <g id="line2d_7">
      <defs>
       <path id="m0b1264ee99" d="M 0 0 
L -3.5 0 
" style="stroke: #000000; stroke-width: 0.8"/>
      </defs>
      <g>
       <use xlink:href="#m0b1264ee99" x="43.78125" y="300.440612" style="stroke: #000000; stroke-width: 0.8"/>
      </g>
     </g>
     <g id="text_8">
      <!-- 0.0 -->
      <g transform="translate(20.878125 304.239831)scale(0.1 -0.1)">
       <use xlink:href="#DejaVuSans-30"/>
       <use xlink:href="#DejaVuSans-2e" x="63.623047"/>
       <use xlink:href="#DejaVuSans-30" x="95.410156"/>
      </g>
     </g>
    </g>
    <g id="ytick_2">
     <g id="line2d_8">
      <g>
       <use xlink:href="#m0b1264ee99" x="43.78125" y="250.736073" style="stroke: #000000; stroke-width: 0.8"/>
      </g>
     </g>
     <g id="text_9">
      <!-- 0.2 -->
      <g transform="translate(20.878125 254.535291)scale(0.1 -0.1)">
       <use xlink:href="#DejaVuSans-30"/>
       <use xlink:href="#DejaVuSans-2e" x="63.623047"/>
       <use xlink:href="#DejaVuSans-32" x="95.410156"/>
      </g>
     </g>
    </g>
    <g id="ytick_3">
     <g id="line2d_9">
      <g>
       <use xlink:href="#m0b1264ee99" x="43.78125" y="201.031533" style="stroke: #000000; stroke-width: 0.8"/>
      </g>
     </g>
     <g id="text_10">
      <!-- 0.4 -->
      <g transform="translate(20.878125 204.830752)scale(0.1 -0.1)">
       <use xlink:href="#DejaVuSans-30"/>
       <use xlink:href="#DejaVuSans-2e" x="63.623047"/>
       <use xlink:href="#DejaVuSans-34" x="95.410156"/>
      </g>
     </g>
    </g>
    <g id="ytick_4">
     <g id="line2d_10">
      <g>
       <use xlink:href="#m0b1264ee99" x="43.78125" y="151.326994" style="stroke: #000000; stroke-width: 0.8"/>
      </g>
     </g>
     <g id="text_11">
      <!-- 0.6 -->
      <g transform="translate(20.878125 155.126213)scale(0.1 -0.1)">
       <use xlink:href="#DejaVuSans-30"/>
       <use xlink:href="#DejaVuSans-2e" x="63.623047"/>
       <use xlink:href="#DejaVuSans-36" x="95.410156"/>
      </g>
     </g>
    </g>
    <g id="ytick_5">
     <g id="line2d_11">
      <g>
       <use xlink:href="#m0b1264ee99" x="43.78125" y="101.622454" style="stroke: #000000; stroke-width: 0.8"/>
      </g>
     </g>
     <g id="text_12">
      <!-- 0.8 -->
      <g transform="translate(20.878125 105.421673)scale(0.1 -0.1)">
       <use xlink:href="#DejaVuSans-30"/>
       <use xlink:href="#DejaVuSans-2e" x="63.623047"/>
       <use xlink:href="#DejaVuSans-38" x="95.410156"/>
      </g>
     </g>
    </g>
    <g id="ytick_6">
     <g id="line2d_12">
      <g>
       <use xlink:href="#m0b1264ee99" x="43.78125" y="51.917915" style="stroke: #000000; stroke-width: 0.8"/>
      </g>
     </g>
     <g id="text_13">
      <!-- 1.0 -->
      <g transform="translate(20.878125 55.717134)scale(0.1 -0.1)">
       <use xlink:href="#DejaVuSans-31"/>
       <use xlink:href="#DejaVuSans-2e" x="63.623047"/>
       <use xlink:href="#DejaVuSans-30" x="95.410156"/>
      </g>
     </g>
    </g>
    <g id="text_14">
     <!-- bleep -->
     <g transform="translate(14.798438 188.706625)rotate(-90)scale(0.1 -0.1)">
      <defs>
       <path id="DejaVuSans-65" d="M 3597 1894 
L 3597 1613 
L 953 1613 
Q 991 1019 1311 708 
Q 1631 397 2203 397 
Q 2534 397 2845 478 
Q 3156 559 3463 722 
L 3463 178 
Q 3153 47 2828 -22 
Q 2503 -91 2169 -91 
Q 1331 -91 842 396 
Q 353 884 353 1716 
Q 353 2575 817 3079 
Q 1281 3584 2069 3584 
Q 2775 3584 3186 3129 
Q 3597 2675 3597 1894 
z
M 3022 2063 
Q 3016 2534 2758 2815 
Q 2500 3097 2075 3097 
Q 1594 3097 1305 2825 
Q 1016 2553 972 2059 
L 3022 2063 
z
" transform="scale(0.015625)"/>
      </defs>
      <use xlink:href="#DejaVuSans-62"/>
      <use xlink:href="#DejaVuSans-6c" x="63.476562"/>
      <use xlink:href="#DejaVuSans-65" x="91.259766"/>
      <use xlink:href="#DejaVuSans-65" x="152.783203"/>
      <use xlink:href="#DejaVuSans-70" x="214.306641"/>
     </g>
    </g>
   </g>
   <g id="patch_3">
    <path d="M 43.78125 307.872 
L 43.78125 41.76 
" style="fill: none; stroke: #000000; stroke-width: 0.8; stroke-linejoin: miter; stroke-linecap: square"/>
   </g>
   <g id="patch_4">
    <path d="M 400.90125 307.872 
L 400.90125 41.76 
" style="fill: none; stroke: #000000; stroke-width: 0.8; stroke-linejoin: miter; stroke-linecap: square"/>
   </g>
   <g id="patch_5">
    <path d="M 43.78125 307.872 
L 400.90125 307.872 
" style="fill: none; stroke: #000000; stroke-width: 0.8; stroke-linejoin: miter; stroke-linecap: square"/>
   </g>
   <g id="patch_6">
    <path d="M 43.78125 41.76 
L 400.90125 41.76 
" style="fill: none; stroke: #000000; stroke-width: 0.8; stroke-linejoin: miter; stroke-linecap: square"/>
   </g>
   <g id="text_15">
    <!-- interesting text -->
    <g transform="translate(393.375005 176.179264)scale(0.1 -0.1)">
     <defs>
      <path id="DejaVuSans-69" d="M 603 3500 
L 1178 3500 
L 1178 0 
L 603 0 
L 603 3500 
z
M 603 4863 
L 1178 4863 
L 1178 4134 
L 603 4134 
L 603 4863 
z
" transform="scale(0.015625)"/>
      <path id="DejaVuSans-6e" d="M 3513 2113 
L 3513 0 
L 2938 0 
L 2938 2094 
Q 2938 2591 2744 2837 
Q 2550 3084 2163 3084 
Q 1697 3084 1428 2787 
Q 1159 2491 1159 1978 
L 1159 0 
L 581 0 
L 581 3500 
L 1159 3500 
L 1159 2956 
Q 1366 3272 1645 3428 
Q 1925 3584 2291 3584 
Q 2894 3584 3203 3211 
Q 3513 2838 3513 2113 
z
" transform="scale(0.015625)"/>
      <path id="DejaVuSans-74" d="M 1172 4494 
L 1172 3500 
L 2356 3500 
L 2356 3053 
L 1172 3053 
L 1172 1153 
Q 1172 725 1289 603 
Q 1406 481 1766 481 
L 2356 481 
L 2356 0 
L 1766 0 
Q 1100 0 847 248 
Q 594 497 594 1153 
L 594 3053 
L 172 3053 
L 172 3500 
L 594 3500 
L 594 4494 
L 1172 4494 
z
" transform="scale(0.015625)"/>
      <path id="DejaVuSans-72" d="M 2631 2963 
Q 2534 3019 2420 3045 
Q 2306 3072 2169 3072 
Q 1681 3072 1420 2755 
Q 1159 2438 1159 1844 
L 1159 0 
L 581 0 
L 581 3500 
L 1159 3500 
L 1159 2956 
Q 1341 3275 1631 3429 
Q 1922 3584 2338 3584 
Q 2397 3584 2469 3576 
Q 2541 3569 2628 3553 
L 2631 2963 
z
" transform="scale(0.015625)"/>
      <path id="DejaVuSans-73" d="M 2834 3397 
L 2834 2853 
Q 2591 2978 2328 3040 
Q 2066 3103 1784 3103 
Q 1356 3103 1142 2972 
Q 928 2841 928 2578 
Q 928 2378 1081 2264 
Q 1234 2150 1697 2047 
L 1894 2003 
Q 2506 1872 2764 1633 
Q 3022 1394 3022 966 
Q 3022 478 2636 193 
Q 2250 -91 1575 -91 
Q 1294 -91 989 -36 
Q 684 19 347 128 
L 347 722 
Q 666 556 975 473 
Q 1284 391 1588 391 
Q 1994 391 2212 530 
Q 2431 669 2431 922 
Q 2431 1156 2273 1281 
Q 2116 1406 1581 1522 
L 1381 1569 
Q 847 1681 609 1914 
Q 372 2147 372 2553 
Q 372 3047 722 3315 
Q 1072 3584 1716 3584 
Q 2034 3584 2315 3537 
Q 2597 3491 2834 3397 
z
" transform="scale(0.015625)"/>
      <path id="DejaVuSans-67" d="M 2906 1791 
Q 2906 2416 2648 2759 
Q 2391 3103 1925 3103 
Q 1463 3103 1205 2759 
Q 947 2416 947 1791 
Q 947 1169 1205 825 
Q 1463 481 1925 481 
Q 2391 481 2648 825 
Q 2906 1169 2906 1791 
z
M 3481 434 
Q 3481 -459 3084 -895 
Q 2688 -1331 1869 -1331 
Q 1566 -1331 1297 -1286 
Q 1028 -1241 775 -1147 
L 775 -588 
Q 1028 -725 1275 -790 
Q 1522 -856 1778 -856 
Q 2344 -856 2625 -561 
Q 2906 -266 2906 331 
L 2906 616 
Q 2728 306 2450 153 
Q 2172 0 1784 0 
Q 1141 0 747 490 
Q 353 981 353 1791 
Q 353 2603 747 3093 
Q 1141 3584 1784 3584 
Q 2172 3584 2450 3431 
Q 2728 3278 2906 2969 
L 2906 3500 
L 3481 3500 
L 3481 434 
z
" transform="scale(0.015625)"/>
      <path id="DejaVuSans-20" transform="scale(0.015625)"/>
      <path id="DejaVuSans-78" d="M 3513 3500 
L 2247 1797 
L 3578 0 
L 2900 0 
L 1881 1375 
L 863 0 
L 184 0 
L 1544 1831 
L 300 3500 
L 978 3500 
L 1906 2253 
L 2834 3500 
L 3513 3500 
z
" transform="scale(0.015625)"/>
     </defs>
     <use xlink:href="#DejaVuSans-69"/>
     <use xlink:href="#DejaVuSans-6e" x="27.783203"/>
     <use xlink:href="#DejaVuSans-74" x="91.162109"/>
     <use xlink:href="#DejaVuSans-65" x="130.371094"/>
     <use xlink:href="#DejaVuSans-72" x="191.894531"/>
     <use xlink:href="#DejaVuSans-65" x="230.757812"/>
     <use xlink:href="#DejaVuSans-73" x="292.28125"/>
     <use xlink:href="#DejaVuSans-74" x="344.380859"/>
     <use xlink:href="#DejaVuSans-69" x="383.589844"/>
     <use xlink:href="#DejaVuSans-6e" x="411.373047"/>
     <use xlink:href="#DejaVuSans-67" x="474.751953"/>
     <use xlink:href="#DejaVuSans-20" x="538.228516"/>
     <use xlink:href="#DejaVuSans-74" x="570.015625"/>
     <use xlink:href="#DejaVuSans-65" x="609.224609"/>
     <use xlink:href="#DejaVuSans-78" x="668.998047"/>
     <use xlink:href="#DejaVuSans-74" x="728.177734"/>
    </g>
   </g>
   <g id="text_16">
    <!-- Comparing  -->
    <g transform="translate(187.498125 35.76)scale(0.12 -0.12)">
     <defs>
      <path id="DejaVuSans-43" d="M 4122 4306 
L 4122 3641 
Q 3803 3938 3442 4084 
Q 3081 4231 2675 4231 
Q 1875 4231 1450 3742 
Q 1025 3253 1025 2328 
Q 1025 1406 1450 917 
Q 1875 428 2675 428 
Q 3081 428 3442 575 
Q 3803 722 4122 1019 
L 4122 359 
Q 3791 134 3420 21 
Q 3050 -91 2638 -91 
Q 1578 -91 968 557 
Q 359 1206 359 2328 
Q 359 3453 968 4101 
Q 1578 4750 2638 4750 
Q 3056 4750 3426 4639 
Q 3797 4528 4122 4306 
z
" transform="scale(0.015625)"/>
      <path id="DejaVuSans-6d" d="M 3328 2828 
Q 3544 3216 3844 3400 
Q 4144 3584 4550 3584 
Q 5097 3584 5394 3201 
Q 5691 2819 5691 2113 
L 5691 0 
L 5113 0 
L 5113 2094 
Q 5113 2597 4934 2840 
Q 4756 3084 4391 3084 
Q 3944 3084 3684 2787 
Q 3425 2491 3425 1978 
L 3425 0 
L 2847 0 
L 2847 2094 
Q 2847 2600 2669 2842 
Q 2491 3084 2119 3084 
Q 1678 3084 1418 2786 
Q 1159 2488 1159 1978 
L 1159 0 
L 581 0 
L 581 3500 
L 1159 3500 
L 1159 2956 
Q 1356 3278 1631 3431 
Q 1906 3584 2284 3584 
Q 2666 3584 2933 3390 
Q 3200 3197 3328 2828 
z
" transform="scale(0.015625)"/>
      <path id="DejaVuSans-61" d="M 2194 1759 
Q 1497 1759 1228 1600 
Q 959 1441 959 1056 
Q 959 750 1161 570 
Q 1363 391 1709 391 
Q 2188 391 2477 730 
Q 2766 1069 2766 1631 
L 2766 1759 
L 2194 1759 
z
M 3341 1997 
L 3341 0 
L 2766 0 
L 2766 531 
Q 2569 213 2275 61 
Q 1981 -91 1556 -91 
Q 1019 -91 701 211 
Q 384 513 384 1019 
Q 384 1609 779 1909 
Q 1175 2209 1959 2209 
L 2766 2209 
L 2766 2266 
Q 2766 2663 2505 2880 
Q 2244 3097 1772 3097 
Q 1472 3097 1187 3025 
Q 903 2953 641 2809 
L 641 3341 
Q 956 3463 1253 3523 
Q 1550 3584 1831 3584 
Q 2591 3584 2966 3190 
Q 3341 2797 3341 1997 
z
" transform="scale(0.015625)"/>
     </defs>
     <use xlink:href="#DejaVuSans-43"/>
     <use xlink:href="#DejaVuSans-6f" x="69.824219"/>
     <use xlink:href="#DejaVuSans-6d" x="131.005859"/>
     <use xlink:href="#DejaVuSans-70" x="228.417969"/>
     <use xlink:href="#DejaVuSans-61" x="291.894531"/>
     <use xlink:href="#DejaVuSans-72" x="353.173828"/>
     <use xlink:href="#DejaVuSans-69" x="394.287109"/>
     <use xlink:href="#DejaVuSans-6e" x="422.070312"/>
     <use xlink:href="#DejaVuSans-67" x="485.449219"/>
     <use xlink:href="#DejaVuSans-20" x="548.925781"/>
    </g>
   </g>
   <g id="legend_1">
    <g id="patch_7">
     <path d="M 50.78125 64.438125 
L 113.401563 64.438125 
Q 115.401563 64.438125 115.401563 62.438125 
L 115.401563 48.76 
Q 115.401563 46.76 113.401563 46.76 
L 50.78125 46.76 
Q 48.78125 46.76 48.78125 48.76 
L 48.78125 62.438125 
Q 48.78125 64.438125 50.78125 64.438125 
z
" style="fill: #ffffff; opacity: 0.8; stroke: #cccccc; stroke-linejoin: miter"/>
    </g>
    <g id="PathCollection_2">
     <g>
      <use xlink:href="#m8c161272c6" x="62.78125" y="55.733438" style="fill: #1f77b4; stroke: #1f77b4"/>
     </g>
    </g>
    <g id="text_17">
     <!-- sub01 -->
     <g transform="translate(80.78125 58.358438)scale(0.1 -0.1)">
      <defs>
       <path id="DejaVuSans-75" d="M 544 1381 
L 544 3500 
L 1119 3500 
L 1119 1403 
Q 1119 906 1312 657 
Q 1506 409 1894 409 
Q 2359 409 2629 706 
Q 2900 1003 2900 1516 
L 2900 3500 
L 3475 3500 
L 3475 0 
L 2900 0 
L 2900 538 
Q 2691 219 2414 64 
Q 2138 -91 1772 -91 
Q 1169 -91 856 284 
Q 544 659 544 1381 
z
M 1991 3584 
L 1991 3584 
z
" transform="scale(0.015625)"/>
      </defs>
      <use xlink:href="#DejaVuSans-73"/>
      <use xlink:href="#DejaVuSans-75" x="52.099609"/>
      <use xlink:href="#DejaVuSans-62" x="115.478516"/>
      <use xlink:href="#DejaVuSans-30" x="178.955078"/>
      <use xlink:href="#DejaVuSans-31" x="242.578125"/>
     </g>
    </g>
   </g>
  </g>
  <g id="text_18">
   <!-- Something else -->
   <g transform="translate(170.048438 16.318125)scale(0.12 -0.12)">
    <defs>
     <path id="DejaVuSans-53" d="M 3425 4513 
L 3425 3897 
Q 3066 4069 2747 4153 
Q 2428 4238 2131 4238 
Q 1616 4238 1336 4038 
Q 1056 3838 1056 3469 
Q 1056 3159 1242 3001 
Q 1428 2844 1947 2747 
L 2328 2669 
Q 3034 2534 3370 2195 
Q 3706 1856 3706 1288 
Q 3706 609 3251 259 
Q 2797 -91 1919 -91 
Q 1588 -91 1214 -16 
Q 841 59 441 206 
L 441 856 
Q 825 641 1194 531 
Q 1563 422 1919 422 
Q 2459 422 2753 634 
Q 3047 847 3047 1241 
Q 3047 1584 2836 1778 
Q 2625 1972 2144 2069 
L 1759 2144 
Q 1053 2284 737 2584 
Q 422 2884 422 3419 
Q 422 4038 858 4394 
Q 1294 4750 2059 4750 
Q 2388 4750 2728 4690 
Q 3069 4631 3425 4513 
z
" transform="scale(0.015625)"/>
     <path id="DejaVuSans-68" d="M 3513 2113 
L 3513 0 
L 2938 0 
L 2938 2094 
Q 2938 2591 2744 2837 
Q 2550 3084 2163 3084 
Q 1697 3084 1428 2787 
Q 1159 2491 1159 1978 
L 1159 0 
L 581 0 
L 581 4863 
L 1159 4863 
L 1159 2956 
Q 1366 3272 1645 3428 
Q 1925 3584 2291 3584 
Q 2894 3584 3203 3211 
Q 3513 2838 3513 2113 
z
" transform="scale(0.015625)"/>
    </defs>
    <use xlink:href="#DejaVuSans-53"/>
    <use xlink:href="#DejaVuSans-6f" x="63.476562"/>
    <use xlink:href="#DejaVuSans-6d" x="124.658203"/>
    <use xlink:href="#DejaVuSans-65" x="222.070312"/>
    <use xlink:href="#DejaVuSans-74" x="283.59375"/>
    <use xlink:href="#DejaVuSans-68" x="322.802734"/>
    <use xlink:href="#DejaVuSans-69" x="386.181641"/>
    <use xlink:href="#DejaVuSans-6e" x="413.964844"/>
    <use xlink:href="#DejaVuSans-67" x="477.34375"/>
    <use xlink:href="#DejaVuSans-20" x="540.820312"/>
    <use xlink:href="#DejaVuSans-65" x="572.607422"/>
    <use xlink:href="#DejaVuSans-6c" x="634.130859"/>
    <use xlink:href="#DejaVuSans-73" x="661.914062"/>
    <use xlink:href="#DejaVuSans-65" x="714.013672"/>
   </g>
  </g>
 </g>
 <defs>
  <clipPath id="p61efbe85bd">
   <rect x="43.78125" y="41.76" width="357.12" height="266.112"/>
  </clipPath>
 </defs>
</svg>
