<?xml version="1.0" encoding="utf-8" standalone="no"?>
<!DOCTYPE svg PUBLIC "-//W3C//DTD SVG 1.1//EN"
  "http://www.w3.org/Graphics/SVG/1.1/DTD/svg11.dtd">
<svg xmlns:xlink="http://www.w3.org/1999/xlink" width="470.338916pt" height="345.42825pt" viewBox="0 0 470.338916 345.42825" xmlns="http://www.w3.org/2000/svg" version="1.1">
 <metadata>
  <rdf:RDF xmlns:dc="http://purl.org/dc/elements/1.1/" xmlns:cc="http://creativecommons.org/ns#" xmlns:rdf="http://www.w3.org/1999/02/22-rdf-syntax-ns#">
   <cc:Work>
    <dc:type rdf:resource="http://purl.org/dc/dcmitype/StillImage"/>
    <dc:date>2024-05-29T15:00:52.642651</dc:date>
    <dc:format>image/svg+xml</dc:format>
    <dc:creator>
     <cc:Agent>
      <dc:title>Matplotlib v3.5.1, https://matplotlib.org/</dc:title>
     </cc:Agent>
    </dc:creator>
   </cc:Work>
  </rdf:RDF>
 </metadata>
 <defs>
  <style type="text/css">*{stroke-linejoin: round; stroke-linecap: butt}</style>
 </defs>
 <g id="figure_1">
  <g id="patch_1">
   <path d="M 0 345.42825 
L 470.338916 345.42825 
L 470.338916 -0 
L 0 -0 
L 0 345.42825 
z
" style="fill: none"/>
  </g>
  <g id="axes_1">
   <g id="patch_2">
    <path d="M 43.78125 307.872 
L 400.90125 307.872 
L 400.90125 41.76 
L 43.78125 41.76 
L 43.78125 307.872 
z
" style="fill: none"/>
   </g>
   <g id="PathCollection_1">
    <defs>
     <path id="m5c08505d01" d="M 0 3 
C 0.795609 3 1.55874 2.683901 2.12132 2.12132 
C 2.683901 1.55874 3 0.795609 3 0 
C 3 -0.795609 2.683901 -1.55874 2.12132 -2.12132 
C 1.55874 -2.683901 0.795609 -3 0 -3 
C -0.795609 -3 -1.55874 -2.683901 -2.12132 -2.12132 
C -2.683901 -1.55874 -3 -0.795609 -3 0 
C -3 0.795609 -2.683901 1.55874 -2.12132 2.12132 
C -1.55874 2.683901 -0.795609 3 0 3 
z
" style="stroke: #1f77b4"/>
    </defs>
    <g clip-path="url(#paff0543411)">
     <use xlink:href="#m5c08505d01" x="132.129106" y="120.817468" style="fill: #1f77b4; stroke: #1f77b4"/>
     <use xlink:href="#m5c08505d01" x="295.692484" y="70.200613" style="fill: #1f77b4; stroke: #1f77b4"/>
     <use xlink:href="#m5c08505d01" x="280.303515" y="295.776" style="fill: #1f77b4; stroke: #1f77b4"/>
     <use xlink:href="#m5c08505d01" x="344.928927" y="247.599403" style="fill: #1f77b4; stroke: #1f77b4"/>
     <use xlink:href="#m5c08505d01" x="117.687153" y="184.235459" style="fill: #1f77b4; stroke: #1f77b4"/>
     <use xlink:href="#m5c08505d01" x="327.516829" y="100.663742" style="fill: #1f77b4; stroke: #1f77b4"/>
     <use xlink:href="#m5c08505d01" x="294.28517" y="183.452038" style="fill: #1f77b4; stroke: #1f77b4"/>
     <use xlink:href="#m5c08505d01" x="153.491735" y="272.191587" style="fill: #1f77b4; stroke: #1f77b4"/>
     <use xlink:href="#m5c08505d01" x="130.996546" y="102.315991" style="fill: #1f77b4; stroke: #1f77b4"/>
     <use xlink:href="#m5c08505d01" x="325.719607" y="200.98947" style="fill: #1f77b4; stroke: #1f77b4"/>
     <use xlink:href="#m5c08505d01" x="254.548029" y="75.798892" style="fill: #1f77b4; stroke: #1f77b4"/>
     <use xlink:href="#m5c08505d01" x="265.836744" y="83.426524" style="fill: #1f77b4; stroke: #1f77b4"/>
     <use xlink:href="#m5c08505d01" x="301.552715" y="150.4917" style="fill: #1f77b4; stroke: #1f77b4"/>
     <use xlink:href="#m5c08505d01" x="60.013977" y="243.798609" style="fill: #1f77b4; stroke: #1f77b4"/>
     <use xlink:href="#m5c08505d01" x="206.431925" y="85.197715" style="fill: #1f77b4; stroke: #1f77b4"/>
     <use xlink:href="#m5c08505d01" x="332.154259" y="190.341136" style="fill: #1f77b4; stroke: #1f77b4"/>
     <use xlink:href="#m5c08505d01" x="235.57885" y="210.477638" style="fill: #1f77b4; stroke: #1f77b4"/>
     <use xlink:href="#m5c08505d01" x="263.464933" y="183.658263" style="fill: #1f77b4; stroke: #1f77b4"/>
     <use xlink:href="#m5c08505d01" x="321.250165" y="54.121508" style="fill: #1f77b4; stroke: #1f77b4"/>
     <use xlink:href="#m5c08505d01" x="347.275988" y="111.398347" style="fill: #1f77b4; stroke: #1f77b4"/>
     <use xlink:href="#m5c08505d01" x="228.072235" y="260.305336" style="fill: #1f77b4; stroke: #1f77b4"/>
     <use xlink:href="#m5c08505d01" x="130.195857" y="137.537379" style="fill: #1f77b4; stroke: #1f77b4"/>
     <use xlink:href="#m5c08505d01" x="205.331404" y="282.843693" style="fill: #1f77b4; stroke: #1f77b4"/>
     <use xlink:href="#m5c08505d01" x="72.320122" y="287.475672" style="fill: #1f77b4; stroke: #1f77b4"/>
     <use xlink:href="#m5c08505d01" x="297.853727" y="83.524657" style="fill: #1f77b4; stroke: #1f77b4"/>
     <use xlink:href="#m5c08505d01" x="384.668523" y="242.02132" style="fill: #1f77b4; stroke: #1f77b4"/>
     <use xlink:href="#m5c08505d01" x="148.190433" y="112.03217" style="fill: #1f77b4; stroke: #1f77b4"/>
     <use xlink:href="#m5c08505d01" x="339.298612" y="159.976248" style="fill: #1f77b4; stroke: #1f77b4"/>
     <use xlink:href="#m5c08505d01" x="189.025859" y="237.198728" style="fill: #1f77b4; stroke: #1f77b4"/>
     <use xlink:href="#m5c08505d01" x="136.945587" y="200.743046" style="fill: #1f77b4; stroke: #1f77b4"/>
     <use xlink:href="#m5c08505d01" x="319.673013" y="265.033313" style="fill: #1f77b4; stroke: #1f77b4"/>
     <use xlink:href="#m5c08505d01" x="292.134195" y="232.158708" style="fill: #1f77b4; stroke: #1f77b4"/>
     <use xlink:href="#m5c08505d01" x="332.523867" y="131.682635" style="fill: #1f77b4; stroke: #1f77b4"/>
     <use xlink:href="#m5c08505d01" x="178.750236" y="193.933561" style="fill: #1f77b4; stroke: #1f77b4"/>
     <use xlink:href="#m5c08505d01" x="322.775159" y="118.073785" style="fill: #1f77b4; stroke: #1f77b4"/>
     <use xlink:href="#m5c08505d01" x="94.236964" y="192.520785" style="fill: #1f77b4; stroke: #1f77b4"/>
     <use xlink:href="#m5c08505d01" x="200.369301" y="89.472943" style="fill: #1f77b4; stroke: #1f77b4"/>
     <use xlink:href="#m5c08505d01" x="298.61306" y="162.068116" style="fill: #1f77b4; stroke: #1f77b4"/>
     <use xlink:href="#m5c08505d01" x="156.845984" y="61.751399" style="fill: #1f77b4; stroke: #1f77b4"/>
     <use xlink:href="#m5c08505d01" x="128.763992" y="143.790981" style="fill: #1f77b4; stroke: #1f77b4"/>
     <use xlink:href="#m5c08505d01" x="198.511953" y="157.52112" style="fill: #1f77b4; stroke: #1f77b4"/>
     <use xlink:href="#m5c08505d01" x="331.949588" y="122.809899" style="fill: #1f77b4; stroke: #1f77b4"/>
     <use xlink:href="#m5c08505d01" x="183.790513" y="244.987131" style="fill: #1f77b4; stroke: #1f77b4"/>
     <use xlink:href="#m5c08505d01" x="252.713504" y="205.408186" style="fill: #1f77b4; stroke: #1f77b4"/>
     <use xlink:href="#m5c08505d01" x="159.476042" y="290.000239" style="fill: #1f77b4; stroke: #1f77b4"/>
     <use xlink:href="#m5c08505d01" x="280.560801" y="72.745367" style="fill: #1f77b4; stroke: #1f77b4"/>
     <use xlink:href="#m5c08505d01" x="160.212594" y="121.306816" style="fill: #1f77b4; stroke: #1f77b4"/>
     <use xlink:href="#m5c08505d01" x="273.390737" y="247.375824" style="fill: #1f77b4; stroke: #1f77b4"/>
     <use xlink:href="#m5c08505d01" x="205.920011" y="116.75214" style="fill: #1f77b4; stroke: #1f77b4"/>
     <use xlink:href="#m5c08505d01" x="300.650875" y="130.525839" style="fill: #1f77b4; stroke: #1f77b4"/>
     <use xlink:href="#m5c08505d01" x="276.772271" y="124.88599" style="fill: #1f77b4; stroke: #1f77b4"/>
     <use xlink:href="#m5c08505d01" x="141.179306" y="207.437337" style="fill: #1f77b4; stroke: #1f77b4"/>
     <use xlink:href="#m5c08505d01" x="127.897382" y="210.615626" style="fill: #1f77b4; stroke: #1f77b4"/>
     <use xlink:href="#m5c08505d01" x="239.975825" y="264.984012" style="fill: #1f77b4; stroke: #1f77b4"/>
     <use xlink:href="#m5c08505d01" x="97.992628" y="118.105902" style="fill: #1f77b4; stroke: #1f77b4"/>
     <use xlink:href="#m5c08505d01" x="220.881478" y="59.762438" style="fill: #1f77b4; stroke: #1f77b4"/>
     <use xlink:href="#m5c08505d01" x="135.747067" y="70.690741" style="fill: #1f77b4; stroke: #1f77b4"/>
     <use xlink:href="#m5c08505d01" x="246.550366" y="127.683459" style="fill: #1f77b4; stroke: #1f77b4"/>
     <use xlink:href="#m5c08505d01" x="268.467143" y="288.062468" style="fill: #1f77b4; stroke: #1f77b4"/>
     <use xlink:href="#m5c08505d01" x="353.15261" y="184.804691" style="fill: #1f77b4; stroke: #1f77b4"/>
     <use xlink:href="#m5c08505d01" x="214.22497" y="265.287405" style="fill: #1f77b4; stroke: #1f77b4"/>
     <use xlink:href="#m5c08505d01" x="366.022941" y="236.60789" style="fill: #1f77b4; stroke: #1f77b4"/>
     <use xlink:href="#m5c08505d01" x="187.544916" y="261.930786" style="fill: #1f77b4; stroke: #1f77b4"/>
     <use xlink:href="#m5c08505d01" x="161.298943" y="54.540617" style="fill: #1f77b4; stroke: #1f77b4"/>
     <use xlink:href="#m5c08505d01" x="286.988207" y="198.791365" style="fill: #1f77b4; stroke: #1f77b4"/>
     <use xlink:href="#m5c08505d01" x="207.331858" y="232.928466" style="fill: #1f77b4; stroke: #1f77b4"/>
     <use xlink:href="#m5c08505d01" x="65.67642" y="122.978436" style="fill: #1f77b4; stroke: #1f77b4"/>
     <use xlink:href="#m5c08505d01" x="314.728256" y="268.657528" style="fill: #1f77b4; stroke: #1f77b4"/>
     <use xlink:href="#m5c08505d01" x="156.916558" y="232.770411" style="fill: #1f77b4; stroke: #1f77b4"/>
     <use xlink:href="#m5c08505d01" x="310.418341" y="127.533368" style="fill: #1f77b4; stroke: #1f77b4"/>
     <use xlink:href="#m5c08505d01" x="200.730692" y="165.683643" style="fill: #1f77b4; stroke: #1f77b4"/>
     <use xlink:href="#m5c08505d01" x="303.512121" y="183.266996" style="fill: #1f77b4; stroke: #1f77b4"/>
     <use xlink:href="#m5c08505d01" x="176.939286" y="263.474169" style="fill: #1f77b4; stroke: #1f77b4"/>
     <use xlink:href="#m5c08505d01" x="292.363646" y="163.810329" style="fill: #1f77b4; stroke: #1f77b4"/>
     <use xlink:href="#m5c08505d01" x="279.793422" y="65.832339" style="fill: #1f77b4; stroke: #1f77b4"/>
     <use xlink:href="#m5c08505d01" x="186.594548" y="53.856" style="fill: #1f77b4; stroke: #1f77b4"/>
     <use xlink:href="#m5c08505d01" x="143.787004" y="97.65267" style="fill: #1f77b4; stroke: #1f77b4"/>
     <use xlink:href="#m5c08505d01" x="71.426143" y="166.273151" style="fill: #1f77b4; stroke: #1f77b4"/>
     <use xlink:href="#m5c08505d01" x="82.67632" y="110.47933" style="fill: #1f77b4; stroke: #1f77b4"/>
     <use xlink:href="#m5c08505d01" x="125.408428" y="291.500184" style="fill: #1f77b4; stroke: #1f77b4"/>
     <use xlink:href="#m5c08505d01" x="288.913448" y="208.388169" style="fill: #1f77b4; stroke: #1f77b4"/>
     <use xlink:href="#m5c08505d01" x="89.495548" y="115.059732" style="fill: #1f77b4; stroke: #1f77b4"/>
     <use xlink:href="#m5c08505d01" x="91.580019" y="64.012059" style="fill: #1f77b4; stroke: #1f77b4"/>
     <use xlink:href="#m5c08505d01" x="77.905752" y="106.174935" style="fill: #1f77b4; stroke: #1f77b4"/>
     <use xlink:href="#m5c08505d01" x="255.145215" y="251.481607" style="fill: #1f77b4; stroke: #1f77b4"/>
     <use xlink:href="#m5c08505d01" x="298.25549" y="215.140988" style="fill: #1f77b4; stroke: #1f77b4"/>
     <use xlink:href="#m5c08505d01" x="328.53969" y="199.628206" style="fill: #1f77b4; stroke: #1f77b4"/>
     <use xlink:href="#m5c08505d01" x="368.055846" y="292.060557" style="fill: #1f77b4; stroke: #1f77b4"/>
     <use xlink:href="#m5c08505d01" x="165.573337" y="125.530307" style="fill: #1f77b4; stroke: #1f77b4"/>
     <use xlink:href="#m5c08505d01" x="92.709736" y="262.258693" style="fill: #1f77b4; stroke: #1f77b4"/>
     <use xlink:href="#m5c08505d01" x="88.12709" y="293.720435" style="fill: #1f77b4; stroke: #1f77b4"/>
     <use xlink:href="#m5c08505d01" x="252.193049" y="223.82047" style="fill: #1f77b4; stroke: #1f77b4"/>
     <use xlink:href="#m5c08505d01" x="135.993447" y="75.829549" style="fill: #1f77b4; stroke: #1f77b4"/>
     <use xlink:href="#m5c08505d01" x="210.310292" y="73.546759" style="fill: #1f77b4; stroke: #1f77b4"/>
     <use xlink:href="#m5c08505d01" x="216.126678" y="274.873825" style="fill: #1f77b4; stroke: #1f77b4"/>
     <use xlink:href="#m5c08505d01" x="221.261622" y="168.093148" style="fill: #1f77b4; stroke: #1f77b4"/>
     <use xlink:href="#m5c08505d01" x="182.302965" y="257.722298" style="fill: #1f77b4; stroke: #1f77b4"/>
     <use xlink:href="#m5c08505d01" x="89.825129" y="104.800024" style="fill: #1f77b4; stroke: #1f77b4"/>
     <use xlink:href="#m5c08505d01" x="324.399658" y="148.228788" style="fill: #1f77b4; stroke: #1f77b4"/>
     <use xlink:href="#m5c08505d01" x="224.385146" y="66.304274" style="fill: #1f77b4; stroke: #1f77b4"/>
    </g>
   </g>
   <g id="matplotlib.axis_1">
    <g id="xtick_1">
     <g id="line2d_1">
      <defs>
       <path id="mf3e5167acc" d="M 0 0 
L 0 3.5 
" style="stroke: #000000; stroke-width: 0.8"/>
      </defs>
      <g>
       <use xlink:href="#mf3e5167acc" x="51.331086" y="307.872" style="stroke: #000000; stroke-width: 0.8"/>
      </g>
     </g>
     <g id="text_1">
      <!-- 0.0 -->
      <g transform="translate(43.379523 322.470438)scale(0.1 -0.1)">
       <defs>
        <path id="DejaVuSans-30" d="M 2034 4250 
Q 1547 4250 1301 3770 
Q 1056 3291 1056 2328 
Q 1056 1369 1301 889 
Q 1547 409 2034 409 
Q 2525 409 2770 889 
Q 3016 1369 3016 2328 
Q 3016 3291 2770 3770 
Q 2525 4250 2034 4250 
z
M 2034 4750 
Q 2819 4750 3233 4129 
Q 3647 3509 3647 2328 
Q 3647 1150 3233 529 
Q 2819 -91 2034 -91 
Q 1250 -91 836 529 
Q 422 1150 422 2328 
Q 422 3509 836 4129 
Q 1250 4750 2034 4750 
z
" transform="scale(0.015625)"/>
        <path id="DejaVuSans-2e" d="M 684 794 
L 1344 794 
L 1344 0 
L 684 0 
L 684 794 
z
" transform="scale(0.015625)"/>
       </defs>
       <use xlink:href="#DejaVuSans-30"/>
       <use xlink:href="#DejaVuSans-2e" x="63.623047"/>
       <use xlink:href="#DejaVuSans-30" x="95.410156"/>
      </g>
     </g>
    </g>
    <g id="xtick_2">
     <g id="line2d_2">
      <g>
       <use xlink:href="#mf3e5167acc" x="118.345152" y="307.872" style="stroke: #000000; stroke-width: 0.8"/>
      </g>
     </g>
     <g id="text_2">
      <!-- 0.2 -->
      <g transform="translate(110.393589 322.470438)scale(0.1 -0.1)">
       <defs>
        <path id="DejaVuSans-32" d="M 1228 531 
L 3431 531 
L 3431 0 
L 469 0 
L 469 531 
Q 828 903 1448 1529 
Q 2069 2156 2228 2338 
Q 2531 2678 2651 2914 
Q 2772 3150 2772 3378 
Q 2772 3750 2511 3984 
Q 2250 4219 1831 4219 
Q 1534 4219 1204 4116 
Q 875 4013 500 3803 
L 500 4441 
Q 881 4594 1212 4672 
Q 1544 4750 1819 4750 
Q 2544 4750 2975 4387 
Q 3406 4025 3406 3419 
Q 3406 3131 3298 2873 
Q 3191 2616 2906 2266 
Q 2828 2175 2409 1742 
Q 1991 1309 1228 531 
z
" transform="scale(0.015625)"/>
       </defs>
       <use xlink:href="#DejaVuSans-30"/>
       <use xlink:href="#DejaVuSans-2e" x="63.623047"/>
       <use xlink:href="#DejaVuSans-32" x="95.410156"/>
      </g>
     </g>
    </g>
    <g id="xtick_3">
     <g id="line2d_3">
      <g>
       <use xlink:href="#mf3e5167acc" x="185.359218" y="307.872" style="stroke: #000000; stroke-width: 0.8"/>
      </g>
     </g>
     <g id="text_3">
      <!-- 0.4 -->
      <g transform="translate(177.407655 322.470438)scale(0.1 -0.1)">
       <defs>
        <path id="DejaVuSans-34" d="M 2419 4116 
L 825 1625 
L 2419 1625 
L 2419 4116 
z
M 2253 4666 
L 3047 4666 
L 3047 1625 
L 3713 1625 
L 3713 1100 
L 3047 1100 
L 3047 0 
L 2419 0 
L 2419 1100 
L 313 1100 
L 313 1709 
L 2253 4666 
z
" transform="scale(0.015625)"/>
       </defs>
       <use xlink:href="#DejaVuSans-30"/>
       <use xlink:href="#DejaVuSans-2e" x="63.623047"/>
       <use xlink:href="#DejaVuSans-34" x="95.410156"/>
      </g>
     </g>
    </g>
    <g id="xtick_4">
     <g id="line2d_4">
      <g>
       <use xlink:href="#mf3e5167acc" x="252.373284" y="307.872" style="stroke: #000000; stroke-width: 0.8"/>
      </g>
     </g>
     <g id="text_4">
      <!-- 0.6 -->
      <g transform="translate(244.421721 322.470438)scale(0.1 -0.1)">
       <defs>
        <path id="DejaVuSans-36" d="M 2113 2584 
Q 1688 2584 1439 2293 
Q 1191 2003 1191 1497 
Q 1191 994 1439 701 
Q 1688 409 2113 409 
Q 2538 409 2786 701 
Q 3034 994 3034 1497 
Q 3034 2003 2786 2293 
Q 2538 2584 2113 2584 
z
M 3366 4563 
L 3366 3988 
Q 3128 4100 2886 4159 
Q 2644 4219 2406 4219 
Q 1781 4219 1451 3797 
Q 1122 3375 1075 2522 
Q 1259 2794 1537 2939 
Q 1816 3084 2150 3084 
Q 2853 3084 3261 2657 
Q 3669 2231 3669 1497 
Q 3669 778 3244 343 
Q 2819 -91 2113 -91 
Q 1303 -91 875 529 
Q 447 1150 447 2328 
Q 447 3434 972 4092 
Q 1497 4750 2381 4750 
Q 2619 4750 2861 4703 
Q 3103 4656 3366 4563 
z
" transform="scale(0.015625)"/>
       </defs>
       <use xlink:href="#DejaVuSans-30"/>
       <use xlink:href="#DejaVuSans-2e" x="63.623047"/>
       <use xlink:href="#DejaVuSans-36" x="95.410156"/>
      </g>
     </g>
    </g>
    <g id="xtick_5">
     <g id="line2d_5">
      <g>
       <use xlink:href="#mf3e5167acc" x="319.38735" y="307.872" style="stroke: #000000; stroke-width: 0.8"/>
      </g>
     </g>
     <g id="text_5">
      <!-- 0.8 -->
      <g transform="translate(311.435787 322.470438)scale(0.1 -0.1)">
       <defs>
        <path id="DejaVuSans-38" d="M 2034 2216 
Q 1584 2216 1326 1975 
Q 1069 1734 1069 1313 
Q 1069 891 1326 650 
Q 1584 409 2034 409 
Q 2484 409 2743 651 
Q 3003 894 3003 1313 
Q 3003 1734 2745 1975 
Q 2488 2216 2034 2216 
z
M 1403 2484 
Q 997 2584 770 2862 
Q 544 3141 544 3541 
Q 544 4100 942 4425 
Q 1341 4750 2034 4750 
Q 2731 4750 3128 4425 
Q 3525 4100 3525 3541 
Q 3525 3141 3298 2862 
Q 3072 2584 2669 2484 
Q 3125 2378 3379 2068 
Q 3634 1759 3634 1313 
Q 3634 634 3220 271 
Q 2806 -91 2034 -91 
Q 1263 -91 848 271 
Q 434 634 434 1313 
Q 434 1759 690 2068 
Q 947 2378 1403 2484 
z
M 1172 3481 
Q 1172 3119 1398 2916 
Q 1625 2713 2034 2713 
Q 2441 2713 2670 2916 
Q 2900 3119 2900 3481 
Q 2900 3844 2670 4047 
Q 2441 4250 2034 4250 
Q 1625 4250 1398 4047 
Q 1172 3844 1172 3481 
z
" transform="scale(0.015625)"/>
       </defs>
       <use xlink:href="#DejaVuSans-30"/>
       <use xlink:href="#DejaVuSans-2e" x="63.623047"/>
       <use xlink:href="#DejaVuSans-38" x="95.410156"/>
      </g>
     </g>
    </g>
    <g id="xtick_6">
     <g id="line2d_6">
      <g>
       <use xlink:href="#mf3e5167acc" x="386.401416" y="307.872" style="stroke: #000000; stroke-width: 0.8"/>
      </g>
     </g>
     <g id="text_6">
      <!-- 1.0 -->
      <g transform="translate(378.449853 322.470438)scale(0.1 -0.1)">
       <defs>
        <path id="DejaVuSans-31" d="M 794 531 
L 1825 531 
L 1825 4091 
L 703 3866 
L 703 4441 
L 1819 4666 
L 2450 4666 
L 2450 531 
L 3481 531 
L 3481 0 
L 794 0 
L 794 531 
z
" transform="scale(0.015625)"/>
       </defs>
       <use xlink:href="#DejaVuSans-31"/>
       <use xlink:href="#DejaVuSans-2e" x="63.623047"/>
       <use xlink:href="#DejaVuSans-30" x="95.410156"/>
      </g>
     </g>
    </g>
    <g id="text_7">
     <!-- bloop -->
     <g transform="translate(208.485 336.148562)scale(0.1 -0.1)">
      <defs>
       <path id="DejaVuSans-62" d="M 3116 1747 
Q 3116 2381 2855 2742 
Q 2594 3103 2138 3103 
Q 1681 3103 1420 2742 
Q 1159 2381 1159 1747 
Q 1159 1113 1420 752 
Q 1681 391 2138 391 
Q 2594 391 2855 752 
Q 3116 1113 3116 1747 
z
M 1159 2969 
Q 1341 3281 1617 3432 
Q 1894 3584 2278 3584 
Q 2916 3584 3314 3078 
Q 3713 2572 3713 1747 
Q 3713 922 3314 415 
Q 2916 -91 2278 -91 
Q 1894 -91 1617 61 
Q 1341 213 1159 525 
L 1159 0 
L 581 0 
L 581 4863 
L 1159 4863 
L 1159 2969 
z
" transform="scale(0.015625)"/>
       <path id="DejaVuSans-6c" d="M 603 4863 
L 1178 4863 
L 1178 0 
L 603 0 
L 603 4863 
z
" transform="scale(0.015625)"/>
       <path id="DejaVuSans-6f" d="M 1959 3097 
Q 1497 3097 1228 2736 
Q 959 2375 959 1747 
Q 959 1119 1226 758 
Q 1494 397 1959 397 
Q 2419 397 2687 759 
Q 2956 1122 2956 1747 
Q 2956 2369 2687 2733 
Q 2419 3097 1959 3097 
z
M 1959 3584 
Q 2709 3584 3137 3096 
Q 3566 2609 3566 1747 
Q 3566 888 3137 398 
Q 2709 -91 1959 -91 
Q 1206 -91 779 398 
Q 353 888 353 1747 
Q 353 2609 779 3096 
Q 1206 3584 1959 3584 
z
" transform="scale(0.015625)"/>
       <path id="DejaVuSans-70" d="M 1159 525 
L 1159 -1331 
L 581 -1331 
L 581 3500 
L 1159 3500 
L 1159 2969 
Q 1341 3281 1617 3432 
Q 1894 3584 2278 3584 
Q 2916 3584 3314 3078 
Q 3713 2572 3713 1747 
Q 3713 922 3314 415 
Q 2916 -91 2278 -91 
Q 1894 -91 1617 61 
Q 1341 213 1159 525 
z
M 3116 1747 
Q 3116 2381 2855 2742 
Q 2594 3103 2138 3103 
Q 1681 3103 1420 2742 
Q 1159 2381 1159 1747 
Q 1159 1113 1420 752 
Q 1681 391 2138 391 
Q 2594 391 2855 752 
Q 3116 1113 3116 1747 
z
" transform="scale(0.015625)"/>
      </defs>
      <use xlink:href="#DejaVuSans-62"/>
      <use xlink:href="#DejaVuSans-6c" x="63.476562"/>
      <use xlink:href="#DejaVuSans-6f" x="91.259766"/>
      <use xlink:href="#DejaVuSans-6f" x="152.441406"/>
      <use xlink:href="#DejaVuSans-70" x="213.623047"/>
     </g>
    </g>
   </g>
   <g id="matplotlib.axis_2">
    <g id="ytick_1">
     <g id="line2d_7">
      <defs>
       <path id="m64570c0e29" d="M 0 0 
L -3.5 0 
" style="stroke: #000000; stroke-width: 0.8"/>
      </defs>
      <g>
       <use xlink:href="#m64570c0e29" x="43.78125" y="296.06818" style="stroke: #000000; stroke-width: 0.8"/>
      </g>
     </g>
     <g id="text_8">
      <!-- 0.0 -->
      <g transform="translate(20.878125 299.867399)scale(0.1 -0.1)">
       <use xlink:href="#DejaVuSans-30"/>
       <use xlink:href="#DejaVuSans-2e" x="63.623047"/>
       <use xlink:href="#DejaVuSans-30" x="95.410156"/>
      </g>
     </g>
    </g>
    <g id="ytick_2">
     <g id="line2d_8">
      <g>
       <use xlink:href="#m64570c0e29" x="43.78125" y="245.775088" style="stroke: #000000; stroke-width: 0.8"/>
      </g>
     </g>
     <g id="text_9">
      <!-- 0.2 -->
      <g transform="translate(20.878125 249.574307)scale(0.1 -0.1)">
       <use xlink:href="#DejaVuSans-30"/>
       <use xlink:href="#DejaVuSans-2e" x="63.623047"/>
       <use xlink:href="#DejaVuSans-32" x="95.410156"/>
      </g>
     </g>
    </g>
    <g id="ytick_3">
     <g id="line2d_9">
      <g>
       <use xlink:href="#m64570c0e29" x="43.78125" y="195.481996" style="stroke: #000000; stroke-width: 0.8"/>
      </g>
     </g>
     <g id="text_10">
      <!-- 0.4 -->
      <g transform="translate(20.878125 199.281215)scale(0.1 -0.1)">
       <use xlink:href="#DejaVuSans-30"/>
       <use xlink:href="#DejaVuSans-2e" x="63.623047"/>
       <use xlink:href="#DejaVuSans-34" x="95.410156"/>
      </g>
     </g>
    </g>
    <g id="ytick_4">
     <g id="line2d_10">
      <g>
       <use xlink:href="#m64570c0e29" x="43.78125" y="145.188905" style="stroke: #000000; stroke-width: 0.8"/>
      </g>
     </g>
     <g id="text_11">
      <!-- 0.6 -->
      <g transform="translate(20.878125 148.988123)scale(0.1 -0.1)">
       <use xlink:href="#DejaVuSans-30"/>
       <use xlink:href="#DejaVuSans-2e" x="63.623047"/>
       <use xlink:href="#DejaVuSans-36" x="95.410156"/>
      </g>
     </g>
    </g>
    <g id="ytick_5">
     <g id="line2d_11">
      <g>
       <use xlink:href="#m64570c0e29" x="43.78125" y="94.895813" style="stroke: #000000; stroke-width: 0.8"/>
      </g>
     </g>
     <g id="text_12">
      <!-- 0.8 -->
      <g transform="translate(20.878125 98.695032)scale(0.1 -0.1)">
       <use xlink:href="#DejaVuSans-30"/>
       <use xlink:href="#DejaVuSans-2e" x="63.623047"/>
       <use xlink:href="#DejaVuSans-38" x="95.410156"/>
      </g>
     </g>
    </g>
    <g id="ytick_6">
     <g id="line2d_12">
      <g>
       <use xlink:href="#m64570c0e29" x="43.78125" y="44.602721" style="stroke: #000000; stroke-width: 0.8"/>
      </g>
     </g>
     <g id="text_13">
      <!-- 1.0 -->
      <g transform="translate(20.878125 48.40194)scale(0.1 -0.1)">
       <use xlink:href="#DejaVuSans-31"/>
       <use xlink:href="#DejaVuSans-2e" x="63.623047"/>
       <use xlink:href="#DejaVuSans-30" x="95.410156"/>
      </g>
     </g>
    </g>
    <g id="text_14">
     <!-- bleep -->
     <g transform="translate(14.798438 188.706625)rotate(-90)scale(0.1 -0.1)">
      <defs>
       <path id="DejaVuSans-65" d="M 3597 1894 
L 3597 1613 
L 953 1613 
Q 991 1019 1311 708 
Q 1631 397 2203 397 
Q 2534 397 2845 478 
Q 3156 559 3463 722 
L 3463 178 
Q 3153 47 2828 -22 
Q 2503 -91 2169 -91 
Q 1331 -91 842 396 
Q 353 884 353 1716 
Q 353 2575 817 3079 
Q 1281 3584 2069 3584 
Q 2775 3584 3186 3129 
Q 3597 2675 3597 1894 
z
M 3022 2063 
Q 3016 2534 2758 2815 
Q 2500 3097 2075 3097 
Q 1594 3097 1305 2825 
Q 1016 2553 972 2059 
L 3022 2063 
z
" transform="scale(0.015625)"/>
      </defs>
      <use xlink:href="#DejaVuSans-62"/>
      <use xlink:href="#DejaVuSans-6c" x="63.476562"/>
      <use xlink:href="#DejaVuSans-65" x="91.259766"/>
      <use xlink:href="#DejaVuSans-65" x="152.783203"/>
      <use xlink:href="#DejaVuSans-70" x="214.306641"/>
     </g>
    </g>
   </g>
   <g id="patch_3">
    <path d="M 43.78125 307.872 
L 43.78125 41.76 
" style="fill: none; stroke: #000000; stroke-width: 0.8; stroke-linejoin: miter; stroke-linecap: square"/>
   </g>
   <g id="patch_4">
    <path d="M 400.90125 307.872 
L 400.90125 41.76 
" style="fill: none; stroke: #000000; stroke-width: 0.8; stroke-linejoin: miter; stroke-linecap: square"/>
   </g>
   <g id="patch_5">
    <path d="M 43.78125 307.872 
L 400.90125 307.872 
" style="fill: none; stroke: #000000; stroke-width: 0.8; stroke-linejoin: miter; stroke-linecap: square"/>
   </g>
   <g id="patch_6">
    <path d="M 43.78125 41.76 
L 400.90125 41.76 
" style="fill: none; stroke: #000000; stroke-width: 0.8; stroke-linejoin: miter; stroke-linecap: square"/>
   </g>
   <g id="text_15">
    <!-- interesting text -->
    <g transform="translate(386.401416 170.335451)scale(0.1 -0.1)">
     <defs>
      <path id="DejaVuSans-69" d="M 603 3500 
L 1178 3500 
L 1178 0 
L 603 0 
L 603 3500 
z
M 603 4863 
L 1178 4863 
L 1178 4134 
L 603 4134 
L 603 4863 
z
" transform="scale(0.015625)"/>
      <path id="DejaVuSans-6e" d="M 3513 2113 
L 3513 0 
L 2938 0 
L 2938 2094 
Q 2938 2591 2744 2837 
Q 2550 3084 2163 3084 
Q 1697 3084 1428 2787 
Q 1159 2491 1159 1978 
L 1159 0 
L 581 0 
L 581 3500 
L 1159 3500 
L 1159 2956 
Q 1366 3272 1645 3428 
Q 1925 3584 2291 3584 
Q 2894 3584 3203 3211 
Q 3513 2838 3513 2113 
z
" transform="scale(0.015625)"/>
      <path id="DejaVuSans-74" d="M 1172 4494 
L 1172 3500 
L 2356 3500 
L 2356 3053 
L 1172 3053 
L 1172 1153 
Q 1172 725 1289 603 
Q 1406 481 1766 481 
L 2356 481 
L 2356 0 
L 1766 0 
Q 1100 0 847 248 
Q 594 497 594 1153 
L 594 3053 
L 172 3053 
L 172 3500 
L 594 3500 
L 594 4494 
L 1172 4494 
z
" transform="scale(0.015625)"/>
      <path id="DejaVuSans-72" d="M 2631 2963 
Q 2534 3019 2420 3045 
Q 2306 3072 2169 3072 
Q 1681 3072 1420 2755 
Q 1159 2438 1159 1844 
L 1159 0 
L 581 0 
L 581 3500 
L 1159 3500 
L 1159 2956 
Q 1341 3275 1631 3429 
Q 1922 3584 2338 3584 
Q 2397 3584 2469 3576 
Q 2541 3569 2628 3553 
L 2631 2963 
z
" transform="scale(0.015625)"/>
      <path id="DejaVuSans-73" d="M 2834 3397 
L 2834 2853 
Q 2591 2978 2328 3040 
Q 2066 3103 1784 3103 
Q 1356 3103 1142 2972 
Q 928 2841 928 2578 
Q 928 2378 1081 2264 
Q 1234 2150 1697 2047 
L 1894 2003 
Q 2506 1872 2764 1633 
Q 3022 1394 3022 966 
Q 3022 478 2636 193 
Q 2250 -91 1575 -91 
Q 1294 -91 989 -36 
Q 684 19 347 128 
L 347 722 
Q 666 556 975 473 
Q 1284 391 1588 391 
Q 1994 391 2212 530 
Q 2431 669 2431 922 
Q 2431 1156 2273 1281 
Q 2116 1406 1581 1522 
L 1381 1569 
Q 847 1681 609 1914 
Q 372 2147 372 2553 
Q 372 3047 722 3315 
Q 1072 3584 1716 3584 
Q 2034 3584 2315 3537 
Q 2597 3491 2834 3397 
z
" transform="scale(0.015625)"/>
      <path id="DejaVuSans-67" d="M 2906 1791 
Q 2906 2416 2648 2759 
Q 2391 3103 1925 3103 
Q 1463 3103 1205 2759 
Q 947 2416 947 1791 
Q 947 1169 1205 825 
Q 1463 481 1925 481 
Q 2391 481 2648 825 
Q 2906 1169 2906 1791 
z
M 3481 434 
Q 3481 -459 3084 -895 
Q 2688 -1331 1869 -1331 
Q 1566 -1331 1297 -1286 
Q 1028 -1241 775 -1147 
L 775 -588 
Q 1028 -725 1275 -790 
Q 1522 -856 1778 -856 
Q 2344 -856 2625 -561 
Q 2906 -266 2906 331 
L 2906 616 
Q 2728 306 2450 153 
Q 2172 0 1784 0 
Q 1141 0 747 490 
Q 353 981 353 1791 
Q 353 2603 747 3093 
Q 1141 3584 1784 3584 
Q 2172 3584 2450 3431 
Q 2728 3278 2906 2969 
L 2906 3500 
L 3481 3500 
L 3481 434 
z
" transform="scale(0.015625)"/>
      <path id="DejaVuSans-20" transform="scale(0.015625)"/>
      <path id="DejaVuSans-78" d="M 3513 3500 
L 2247 1797 
L 3578 0 
L 2900 0 
L 1881 1375 
L 863 0 
L 184 0 
L 1544 1831 
L 300 3500 
L 978 3500 
L 1906 2253 
L 2834 3500 
L 3513 3500 
z
" transform="scale(0.015625)"/>
     </defs>
     <use xlink:href="#DejaVuSans-69"/>
     <use xlink:href="#DejaVuSans-6e" x="27.783203"/>
     <use xlink:href="#DejaVuSans-74" x="91.162109"/>
     <use xlink:href="#DejaVuSans-65" x="130.371094"/>
     <use xlink:href="#DejaVuSans-72" x="191.894531"/>
     <use xlink:href="#DejaVuSans-65" x="230.757812"/>
     <use xlink:href="#DejaVuSans-73" x="292.28125"/>
     <use xlink:href="#DejaVuSans-74" x="344.380859"/>
     <use xlink:href="#DejaVuSans-69" x="383.589844"/>
     <use xlink:href="#DejaVuSans-6e" x="411.373047"/>
     <use xlink:href="#DejaVuSans-67" x="474.751953"/>
     <use xlink:href="#DejaVuSans-20" x="538.228516"/>
     <use xlink:href="#DejaVuSans-74" x="570.015625"/>
     <use xlink:href="#DejaVuSans-65" x="609.224609"/>
     <use xlink:href="#DejaVuSans-78" x="668.998047"/>
     <use xlink:href="#DejaVuSans-74" x="728.177734"/>
    </g>
   </g>
   <g id="text_16">
    <!-- Comparing  -->
    <g transform="translate(187.498125 35.76)scale(0.12 -0.12)">
     <defs>
      <path id="DejaVuSans-43" d="M 4122 4306 
L 4122 3641 
Q 3803 3938 3442 4084 
Q 3081 4231 2675 4231 
Q 1875 4231 1450 3742 
Q 1025 3253 1025 2328 
Q 1025 1406 1450 917 
Q 1875 428 2675 428 
Q 3081 428 3442 575 
Q 3803 722 4122 1019 
L 4122 359 
Q 3791 134 3420 21 
Q 3050 -91 2638 -91 
Q 1578 -91 968 557 
Q 359 1206 359 2328 
Q 359 3453 968 4101 
Q 1578 4750 2638 4750 
Q 3056 4750 3426 4639 
Q 3797 4528 4122 4306 
z
" transform="scale(0.015625)"/>
      <path id="DejaVuSans-6d" d="M 3328 2828 
Q 3544 3216 3844 3400 
Q 4144 3584 4550 3584 
Q 5097 3584 5394 3201 
Q 5691 2819 5691 2113 
L 5691 0 
L 5113 0 
L 5113 2094 
Q 5113 2597 4934 2840 
Q 4756 3084 4391 3084 
Q 3944 3084 3684 2787 
Q 3425 2491 3425 1978 
L 3425 0 
L 2847 0 
L 2847 2094 
Q 2847 2600 2669 2842 
Q 2491 3084 2119 3084 
Q 1678 3084 1418 2786 
Q 1159 2488 1159 1978 
L 1159 0 
L 581 0 
L 581 3500 
L 1159 3500 
L 1159 2956 
Q 1356 3278 1631 3431 
Q 1906 3584 2284 3584 
Q 2666 3584 2933 3390 
Q 3200 3197 3328 2828 
z
" transform="scale(0.015625)"/>
      <path id="DejaVuSans-61" d="M 2194 1759 
Q 1497 1759 1228 1600 
Q 959 1441 959 1056 
Q 959 750 1161 570 
Q 1363 391 1709 391 
Q 2188 391 2477 730 
Q 2766 1069 2766 1631 
L 2766 1759 
L 2194 1759 
z
M 3341 1997 
L 3341 0 
L 2766 0 
L 2766 531 
Q 2569 213 2275 61 
Q 1981 -91 1556 -91 
Q 1019 -91 701 211 
Q 384 513 384 1019 
Q 384 1609 779 1909 
Q 1175 2209 1959 2209 
L 2766 2209 
L 2766 2266 
Q 2766 2663 2505 2880 
Q 2244 3097 1772 3097 
Q 1472 3097 1187 3025 
Q 903 2953 641 2809 
L 641 3341 
Q 956 3463 1253 3523 
Q 1550 3584 1831 3584 
Q 2591 3584 2966 3190 
Q 3341 2797 3341 1997 
z
" transform="scale(0.015625)"/>
     </defs>
     <use xlink:href="#DejaVuSans-43"/>
     <use xlink:href="#DejaVuSans-6f" x="69.824219"/>
     <use xlink:href="#DejaVuSans-6d" x="131.005859"/>
     <use xlink:href="#DejaVuSans-70" x="228.417969"/>
     <use xlink:href="#DejaVuSans-61" x="291.894531"/>
     <use xlink:href="#DejaVuSans-72" x="353.173828"/>
     <use xlink:href="#DejaVuSans-69" x="394.287109"/>
     <use xlink:href="#DejaVuSans-6e" x="422.070312"/>
     <use xlink:href="#DejaVuSans-67" x="485.449219"/>
     <use xlink:href="#DejaVuSans-20" x="548.925781"/>
    </g>
   </g>
   <g id="legend_1">
    <g id="patch_7">
     <path d="M 331.280937 64.438125 
L 393.90125 64.438125 
Q 395.90125 64.438125 395.90125 62.438125 
L 395.90125 48.76 
Q 395.90125 46.76 393.90125 46.76 
L 331.280937 46.76 
Q 329.280937 46.76 329.280937 48.76 
L 329.280937 62.438125 
Q 329.280937 64.438125 331.280937 64.438125 
z
" style="fill: #ffffff; opacity: 0.8; stroke: #cccccc; stroke-linejoin: miter"/>
    </g>
    <g id="PathCollection_2">
     <g>
      <use xlink:href="#m5c08505d01" x="343.280937" y="55.733438" style="fill: #1f77b4; stroke: #1f77b4"/>
     </g>
    </g>
    <g id="text_17">
     <!-- sub01 -->
     <g transform="translate(361.280937 58.358438)scale(0.1 -0.1)">
      <defs>
       <path id="DejaVuSans-75" d="M 544 1381 
L 544 3500 
L 1119 3500 
L 1119 1403 
Q 1119 906 1312 657 
Q 1506 409 1894 409 
Q 2359 409 2629 706 
Q 2900 1003 2900 1516 
L 2900 3500 
L 3475 3500 
L 3475 0 
L 2900 0 
L 2900 538 
Q 2691 219 2414 64 
Q 2138 -91 1772 -91 
Q 1169 -91 856 284 
Q 544 659 544 1381 
z
M 1991 3584 
L 1991 3584 
z
" transform="scale(0.015625)"/>
      </defs>
      <use xlink:href="#DejaVuSans-73"/>
      <use xlink:href="#DejaVuSans-75" x="52.099609"/>
      <use xlink:href="#DejaVuSans-62" x="115.478516"/>
      <use xlink:href="#DejaVuSans-30" x="178.955078"/>
      <use xlink:href="#DejaVuSans-31" x="242.578125"/>
     </g>
    </g>
   </g>
  </g>
  <g id="text_18">
   <!-- Something else -->
   <g transform="translate(170.048438 16.318125)scale(0.12 -0.12)">
    <defs>
     <path id="DejaVuSans-53" d="M 3425 4513 
L 3425 3897 
Q 3066 4069 2747 4153 
Q 2428 4238 2131 4238 
Q 1616 4238 1336 4038 
Q 1056 3838 1056 3469 
Q 1056 3159 1242 3001 
Q 1428 2844 1947 2747 
L 2328 2669 
Q 3034 2534 3370 2195 
Q 3706 1856 3706 1288 
Q 3706 609 3251 259 
Q 2797 -91 1919 -91 
Q 1588 -91 1214 -16 
Q 841 59 441 206 
L 441 856 
Q 825 641 1194 531 
Q 1563 422 1919 422 
Q 2459 422 2753 634 
Q 3047 847 3047 1241 
Q 3047 1584 2836 1778 
Q 2625 1972 2144 2069 
L 1759 2144 
Q 1053 2284 737 2584 
Q 422 2884 422 3419 
Q 422 4038 858 4394 
Q 1294 4750 2059 4750 
Q 2388 4750 2728 4690 
Q 3069 4631 3425 4513 
z
" transform="scale(0.015625)"/>
     <path id="DejaVuSans-68" d="M 3513 2113 
L 3513 0 
L 2938 0 
L 2938 2094 
Q 2938 2591 2744 2837 
Q 2550 3084 2163 3084 
Q 1697 3084 1428 2787 
Q 1159 2491 1159 1978 
L 1159 0 
L 581 0 
L 581 4863 
L 1159 4863 
L 1159 2956 
Q 1366 3272 1645 3428 
Q 1925 3584 2291 3584 
Q 2894 3584 3203 3211 
Q 3513 2838 3513 2113 
z
" transform="scale(0.015625)"/>
    </defs>
    <use xlink:href="#DejaVuSans-53"/>
    <use xlink:href="#DejaVuSans-6f" x="63.476562"/>
    <use xlink:href="#DejaVuSans-6d" x="124.658203"/>
    <use xlink:href="#DejaVuSans-65" x="222.070312"/>
    <use xlink:href="#DejaVuSans-74" x="283.59375"/>
    <use xlink:href="#DejaVuSans-68" x="322.802734"/>
    <use xlink:href="#DejaVuSans-69" x="386.181641"/>
    <use xlink:href="#DejaVuSans-6e" x="413.964844"/>
    <use xlink:href="#DejaVuSans-67" x="477.34375"/>
    <use xlink:href="#DejaVuSans-20" x="540.820312"/>
    <use xlink:href="#DejaVuSans-65" x="572.607422"/>
    <use xlink:href="#DejaVuSans-6c" x="634.130859"/>
    <use xlink:href="#DejaVuSans-73" x="661.914062"/>
    <use xlink:href="#DejaVuSans-65" x="714.013672"/>
   </g>
  </g>
 </g>
 <defs>
  <clipPath id="paff0543411">
   <rect x="43.78125" y="41.76" width="357.12" height="266.112"/>
  </clipPath>
 </defs>
</svg>
